<svg width="60" height="60" viewBox="0 0 60 60" fill="none" xmlns="http://www.w3.org/2000/svg">
<path fill-rule="evenodd" clip-rule="evenodd" d="M43.3333 18.3583C43.3333 25.7083 37.35 31.6916 30 31.6916V31.675C22.65 31.675 16.6667 25.6916 16.6667 18.3416C16.6667 10.9916 22.65 5.0083 30 5.0083C37.35 5.0083 43.3333 11.0083 43.3333 18.3583ZM40 18.3416C40 12.825 35.5167 8.34163 30 8.34163C24.4833 8.34163 20 12.825 20 18.3416C20 23.8583 24.4833 28.3416 30 28.3416C35.5167 28.3416 40 23.8583 40 18.3416ZM23.3167 34.9916H36.6833C46.7833 34.9916 55 43.2082 55 53.3082V54.9916H5V53.3082C5 43.2082 13.2167 34.9916 23.3167 34.9916ZM23.3167 38.3416C15.6 38.3416 9.23333 44.1749 8.41667 51.6749H51.5667C50.75 44.1749 44.3833 38.3416 36.6833 38.3416H23.3167Z" fill="black"/>
</svg>
