<svg width="60" height="60" viewBox="0 0 60 60" fill="none" xmlns="http://www.w3.org/2000/svg">
<path d="M30.0045 55L6.14634 30.9949C3.27264 28.1066 1.69745 24.2713 1.71129 20.1963C1.72512 16.1228 3.32536 12.3002 6.21738 9.43244C9.09482 6.57444 12.9145 5 16.9723 5C21.0626 5 24.9005 6.59575 27.7791 9.49376L30.0019 11.7244C30.5825 11.1422 31.5243 10.1948 32.2205 9.49376C35.1092 6.59538 38.9501 5 43.0371 5C47.0878 5 50.9044 6.57407 53.7834 9.43281C56.675 12.3005 58.2753 16.1235 58.2887 20.1974C58.3022 24.272 56.7266 28.107 53.8529 30.9957L30.0045 55ZM16.9723 6.53144C13.3216 6.53144 9.88522 7.94773 7.29605 10.5193C4.69454 13.0992 3.25507 16.5374 3.24273 20.2015C3.23002 23.8671 4.64705 27.317 7.23249 29.9155L30.0045 52.827L52.7671 29.9159C55.3522 27.317 56.7692 23.8679 56.7573 20.2023C56.7446 16.5382 55.3058 13.0995 52.7043 10.5197C50.114 7.94773 46.681 6.53144 43.0371 6.53144C39.3603 6.53144 35.9044 7.96717 33.3063 10.5739C30.0269 13.8753 30.028 13.8753 29.4803 13.3698L29.4567 13.347L26.6933 10.5739C24.1034 7.9668 20.6513 6.53144 16.9723 6.53144Z" fill="black"/>
</svg>
