<svg width="60" height="60" viewBox="0 0 60 60" fill="none" xmlns="http://www.w3.org/2000/svg">
<path fill-rule="evenodd" clip-rule="evenodd" d="M37.4465 13.3284C30.7864 6.66833 19.9884 6.66833 13.3284 13.3284C6.66833 19.9884 6.66833 30.7864 13.3284 37.4465C19.9884 44.1065 30.7864 44.1065 37.4465 37.4465C44.1065 30.7864 44.1065 19.9884 37.4465 13.3284ZM10.9713 10.9713C18.9331 3.00956 31.8417 3.00956 39.8035 10.9713C47.3685 18.5363 47.7455 30.5673 40.9345 38.5775L54.5119 52.1548C55.1627 52.8057 55.1627 53.861 54.5119 54.5119C53.861 55.1627 52.8057 55.1627 52.1548 54.5119L38.5775 40.9345C30.5673 47.7455 18.5363 47.3685 10.9713 39.8035C3.00956 31.8417 3.00956 18.9331 10.9713 10.9713Z" fill="black"/>
</svg>
