<svg width="60" height="60" viewBox="0 0 60 60" fill="none" xmlns="http://www.w3.org/2000/svg">
<path fill-rule="evenodd" clip-rule="evenodd" d="M5.18373 9.21237H10.842L18.9007 35.6134L17.7351 35.7588C16.2187 35.948 15.0754 37.2436 15.0754 38.772C15.0754 40.4467 16.4378 41.809 18.1125 41.809H49.3118C49.785 41.809 50.1675 41.4257 50.1675 40.9533C50.1675 40.4809 49.785 40.0975 49.3118 40.0975H18.1117C17.3809 40.0975 16.7861 39.5028 16.7861 38.772C16.7861 38.1045 17.285 37.5397 17.9465 37.4567L49.5916 33.5005C49.9296 33.4586 50.2094 33.2207 50.3061 32.8946L55.6367 14.9169C55.7137 14.6584 55.6632 14.3786 55.5023 14.1621C55.3406 13.9456 55.0864 13.8181 54.816 13.8181H14.0374L12.2942 8.10588C12.1838 7.74646 11.8518 7.5 11.4761 7.5H5.18373C4.7105 7.5 4.32797 7.88338 4.32797 8.35576C4.32797 8.82814 4.7105 9.21152 5.18373 9.21152V9.21237ZM53.671 15.5304L48.8257 31.8728L20.6233 35.3986L14.5594 15.5304H53.671ZM27.0689 48.0611C27.0689 45.6137 25.0775 43.6223 22.6292 43.6223C20.1809 43.6223 18.1904 45.6137 18.1904 48.0611C18.1904 50.5086 20.1817 52.5 22.6292 52.5C25.0767 52.5 27.0689 50.5086 27.0689 48.0611ZM19.9027 48.0611C19.9027 46.5576 21.1265 45.3338 22.63 45.3338C24.1336 45.3338 25.3582 46.5576 25.3582 48.0611C25.3582 49.5647 24.1345 50.7884 22.63 50.7884C21.1256 50.7884 19.9027 49.5647 19.9027 48.0611ZM45.0586 43.6223C47.507 43.6223 49.4983 45.6137 49.4983 48.0611C49.4983 50.5086 47.507 52.5 45.0586 52.5C42.6103 52.5 40.6198 50.5086 40.6198 48.0611C40.6198 45.6137 42.6103 43.6223 45.0586 43.6223ZM45.0595 45.3338C43.5559 45.3338 42.3322 46.5576 42.3322 48.0611C42.3322 49.5647 43.5551 50.7884 45.0595 50.7884C46.5639 50.7884 47.7876 49.5647 47.7876 48.0611C47.7876 46.5576 46.563 45.3338 45.0595 45.3338Z" fill="black"/>
</svg>
